HIERARCHY
ROOT Hips
{
	OFFSET -0.179506 -22.333345 2.821913
	CHANNELS 6 Xposition Yposition Zposition Zrotation Yrotation Xrotation 
	JOINT LeftUpLeg
	{
		OFFSET 6.951974 -9.140623 -0.681533
		CHANNELS 3 Zrotation Yrotation Xrotation
		JOINT LeftLeg
		{
			OFFSET 3.427654 -37.519855 -0.449580
			CHANNELS 3 Zrotation Yrotation Xrotation
			JOINT LeftFoot
			{
				OFFSET -1.359570 -39.796059 -4.369333
				CHANNELS 3 Zrotation Yrotation Xrotation
				JOINT LeftToe
				{
					OFFSET 2.635814 -5.579078 11.928840
					CHANNELS 3 Zrotation Yrotation Xrotation
					End Site
					{
						OFFSET 0.000000 0.000000 0.000000
					}
				}
			}
		}
	}
	JOINT RightUpLeg
	{
		OFFSET -6.767048 -9.052170 -0.431982
		CHANNELS 3 Zrotation Yrotation Xrotation
		JOINT RightLeg
		{
			OFFSET -3.829005 -38.256897 -0.885003
			CHANNELS 3 Zrotation Yrotation Xrotation
			JOINT RightFoot
			{
				OFFSET 1.577377 -39.841461 -4.231180
				CHANNELS 3 Zrotation Yrotation Xrotation
				JOINT RightToe
				{
					OFFSET -2.537174 -4.814398 12.334795
					CHANNELS 3 Zrotation Yrotation Xrotation
					End Site
					{
						OFFSET 0.000000 0.000000 0.000000
					}
				}
			}
		}
	}
	JOINT Spine
	{
		OFFSET -0.253288 10.896323 -2.669631
		CHANNELS 3 Zrotation Yrotation Xrotation
		JOINT Spine1
		{
			OFFSET 0.548704 13.518043 0.109247
			CHANNELS 3 Zrotation Yrotation Xrotation
			JOINT Spine2
			{
				OFFSET 0.145701 5.292222 2.542457
				CHANNELS 3 Zrotation Yrotation Xrotation
				JOINT Neck
				{
					OFFSET -0.277840 21.387037 -4.285703
					CHANNELS 3 Zrotation Yrotation Xrotation
					JOINT Head
					{
						OFFSET 0.515184 6.496960 5.134897
						CHANNELS 3 Zrotation Yrotation Xrotation
						End Site
						{
							OFFSET 0.000000 0.000000 0.000000
						}
					}
				}
				JOINT LeftShoulder
				{
					OFFSET 7.884473 12.174932 -3.408961
					CHANNELS 3 Zrotation Yrotation Xrotation
					JOINT LeftArm
					{
						OFFSET 9.097692 3.046888 -0.886815
						CHANNELS 3 Zrotation Yrotation Xrotation
						JOINT LeftForeArm
						{
							OFFSET 25.961220 -1.277207 -2.745643
							CHANNELS 3 Zrotation Yrotation Xrotation
							JOINT LeftHand
							{
								OFFSET 24.923361 0.898606 -0.117091
								CHANNELS 3 Zrotation Yrotation Xrotation
								End Site
								{
									OFFSET 0.000000 0.000000 0.000000
								}
							}
						}
					}
				}
				JOINT RightShoulder
				{
					OFFSET -8.175920 11.883285 -3.861528
					CHANNELS 3 Zrotation Yrotation Xrotation
					JOINT RightArm
					{
						OFFSET -9.601238 3.255117 -0.914307
						CHANNELS 3 Zrotation Yrotation Xrotation
						JOINT RightForeArm
						{
							OFFSET -25.374195 -1.332924 -2.140099
							CHANNELS 3 Zrotation Yrotation Xrotation
							JOINT RightHand
							{
								OFFSET -25.529810 0.777228 -0.555919
								CHANNELS 3 Zrotation Yrotation Xrotation
								End Site
								{
									OFFSET 0.000000 0.000000 0.000000
								}
							}
						}
					}
				}
			}
		}
	}
}
MOTION
Frames: 8
Frame Time: 0.033333
64.987946 103.650932 9.716069 -38.274316 52.866725 115.183566 31.317577 12.902447 -26.880142 -6.254283 -7.218032 99.755368 -9.962741 14.258894 -2.198627 5.343111 2.251103 -2.331629 -11.434113 -7.237355 -13.555845 6.827109 11.998762 46.036138 6.422451 -1.066483 8.694537 5.268535 -2.123843 0.218690 -9.005419 1.883256 17.519240 0.210815 -7.197110 -2.054327 6.380308 3.223252 -8.790681 -10.533681 -4.934972 -4.111119 14.737638 -1.573701 -15.517726 36.271053 -13.298410 -31.329468 12.960059 -30.236384 -32.922959 19.121496 -16.595780 -15.144629 80.070836 -13.987713 19.047707 -28.685788 12.096183 -27.901299 23.160333 37.708676 -21.339955 -54.208856 33.720731 -53.268336 -88.941038 4.106898 3.469272 
63.903717 102.346771 10.260563 -40.072586 56.329074 109.519377 26.523972 11.452181 -29.214305 -7.401611 -6.641352 102.054644 -11.031800 12.944444 -3.438217 5.353208 2.062510 -2.246299 -8.810995 -5.786912 -21.798605 5.104874 9.564973 41.424365 8.194798 -0.016787 4.699366 4.464978 -2.012566 0.879149 -6.915226 2.034968 22.589325 0.301248 -6.539724 -4.474074 6.306557 3.276127 -6.887761 -10.594642 -6.187658 -5.217121 15.429442 -2.175239 -17.385867 36.855469 -14.390577 -32.886122 13.199547 -27.810212 -33.104363 19.607329 -16.166799 -14.759450 78.390487 -16.722582 20.873703 -29.216153 13.033398 -28.288956 22.208278 38.360778 -22.061673 -51.757072 35.552997 -48.157064 -89.609923 9.289433 6.198789 
62.547714 101.216347 10.482483 -33.845611 57.119441 109.720870 21.236132 10.397823 -30.237536 -10.253096 -7.343166 106.012822 -11.179477 11.213957 -2.365337 4.080104 1.651594 -1.883807 -7.537378 -4.526675 -28.326280 3.787279 7.499482 37.708645 8.339463 0.506392 -0.520194 4.140980 -1.498079 2.285647 -5.181033 1.314343 26.940469 0.497798 -6.160901 -4.864173 6.422834 3.271709 -5.659399 -11.028429 -6.229775 -2.720629 15.425499 -1.799335 -14.239451 36.464679 -16.207917 -33.255746 13.608606 -26.159467 -32.710454 18.909862 -19.022511 -14.149052 77.058096 -18.394532 25.582939 -29.074908 13.699534 -28.520890 21.711466 38.467617 -22.691119 -53.281212 34.794979 -48.395594 -90.208344 12.333243 9.246357 
59.481045 99.786858 13.656231 -27.994904 59.427379 110.070179 17.529288 9.185517 -28.829284 -12.742191 -7.855160 108.872266 -11.614965 10.534149 -1.195811 2.801466 1.592121 -1.716718 -7.012834 -3.109869 -35.146118 2.097100 5.986996 30.909185 9.070039 1.175010 -3.816530 3.499061 -1.335519 2.789923 -3.439903 0.419981 30.426892 0.520625 -5.878763 -5.349877 6.822578 3.151684 -4.970188 -11.319723 -6.613526 -1.476601 15.716694 -0.699858 -14.063342 35.609937 -17.890841 -33.663163 13.194079 -23.981557 -31.509017 18.188297 -19.075132 -13.327478 75.173688 -20.419361 28.627372 -29.228464 14.992568 -28.379713 21.488914 38.801436 -21.467149 -54.499463 37.117145 -47.305782 -90.168350 16.513031 12.088063 
57.013382 98.195244 13.594409 -21.393155 60.957988 110.885684 15.022258 9.033489 -24.631302 -14.422668 -8.401179 110.204512 -11.694509 9.747556 -0.207065 1.877505 1.787885 -1.480680 -7.414986 -2.321217 -41.781698 0.624872 3.209089 24.519686 9.788826 1.123149 -6.008182 3.338703 -1.458988 3.092345 -1.950748 -0.688821 32.912470 0.263982 -5.815797 -5.638419 7.086204 2.807688 -4.197457 -11.621260 -6.830373 -0.017916 16.388014 -0.380038 -13.987161 37.320142 -19.396111 -34.833604 13.092330 -23.259537 -31.009971 15.531856 -17.639007 -11.335001 73.066625 -18.714781 30.745320 -30.419303 15.586083 -28.206193 21.870805 37.754475 -21.004432 -52.595249 36.278696 -45.541650 -89.777373 17.428756 15.902283 
54.144623 98.714226 13.556196 -15.363923 63.547631 110.436298 13.571222 10.631344 -18.958509 -16.300342 -9.184210 108.115360 -12.641192 8.487948 0.220336 1.549209 1.879167 -1.482416 -8.357181 -2.496592 -47.439017 -0.631823 0.532991 20.430524 10.075011 0.522694 -10.554159 2.868366 -1.527037 2.929281 -0.132818 -2.218144 34.610368 -0.008765 -5.592095 -6.471181 7.690745 2.721724 -3.398201 -11.051466 -6.971468 -0.034903 16.874605 0.257520 -14.562767 38.856377 -20.719251 -36.058422 12.286459 -23.085439 -29.579658 9.258946 -12.968429 -7.782988 71.882856 -17.095679 30.267299 -32.839714 16.675298 -29.182972 21.639797 37.853758 -20.396364 -44.424962 33.795682 -40.319433 -89.924145 18.345720 19.070181 
51.001663 97.482208 13.580170 -6.899688 68.232997 112.857899 11.955100 10.577320 -15.443375 -16.514837 -10.249543 104.206934 -12.470111 9.401215 -0.258273 1.809076 1.975159 -1.693595 -10.617176 -2.610736 -55.455167 -1.114292 -2.394574 19.979578 10.303200 -2.042250 -16.009844 2.149909 -1.731996 2.985783 1.793672 -3.624050 36.867119 0.049594 -5.005970 -7.623061 8.184404 2.130661 -2.644311 -9.146626 -6.684398 -2.706850 16.959244 0.532054 -17.619440 41.310101 -21.705372 -37.382682 12.396603 -22.264133 -29.786649 6.899458 -10.258273 -7.204079 69.982883 -13.945345 27.159279 -34.411793 17.979842 -29.299447 18.491487 36.330521 -21.398099 -37.538999 32.041309 -34.848048 -89.892835 18.398734 20.096347 
47.663570 98.141243 14.155033 -3.096088 71.310446 109.313669 10.871898 11.684114 -8.694245 -17.236608 -12.495557 97.710198 -12.533831 9.677971 -0.585448 1.715140 1.614501 -1.519344 -11.987416 -3.723663 -63.233385 -0.335108 -4.767715 23.597626 9.465906 -1.751182 -20.493767 2.046066 -1.446712 3.063568 2.631805 -5.454799 39.329124 -0.257450 -3.782775 -7.030817 8.403003 1.907419 -2.807492 -8.473175 -5.691233 -1.102955 16.519188 1.113091 -17.359983 39.505896 -23.031996 -36.707458 12.869468 -21.559761 -28.959987 4.678650 -9.711877 -7.383489 69.875742 -12.763817 24.064701 -35.098123 21.004479 -29.150078 15.308640 36.421213 -22.684458 -32.037441 30.499264 -31.265309 -89.553000 19.586074 18.169575 
